<?xml version="1.0"?>
<svg xmlns="http://www.w3.org/2000/svg" xmlns:xlink="http://www.w3.org/1999/xlink" viewBox="0 -55 200 60" version="1.1" style="width: 100px; height: 20px;">
  <g fill="#000000">
    <path d="M29.052-39.024C27.876-39.552 26.280-39.816 24.264-39.816C21.768-39.816 19.440-39.264 17.280-38.160C15.120-37.056 13.344-35.496 11.952-33.480L11.952-36.648C11.952-37.512 11.712-38.184 11.232-38.664C10.752-39.144 10.080-39.384 9.216-39.384C8.352-39.384 7.680-39.144 7.200-38.664C6.720-38.184 6.480-37.512 6.480-36.648L6.480-2.736C6.480-1.872 6.720-1.200 7.200-0.720C7.680-0.240 8.352 0 9.216 0C10.080 0 10.752-0.240 11.232-0.720C11.712-1.200 11.952-1.872 11.952-2.736L11.952-24.264C11.952-27.336 13.092-29.832 15.372-31.752C17.652-33.672 20.592-34.632 24.192-34.632C24.960-34.632 25.536-34.608 25.920-34.560C26.976-34.464 27.720-34.416 28.152-34.416C28.872-34.416 29.436-34.536 29.844-34.776C30.252-35.016 30.552-35.472 30.744-36.144C30.792-36.288 30.816-36.504 30.816-36.792C30.816-37.752 30.228-38.496 29.052-39.024Z"/>
    <path d="M62.885-37.260C60.149-38.916 57.005-39.744 53.453-39.744C49.805-39.744 46.553-38.892 43.697-37.188C40.841-35.484 38.609-33.108 37.001-30.060C35.393-27.012 34.589-23.544 34.589-19.656C34.589-15.816 35.441-12.372 37.145-9.324C38.849-6.276 41.213-3.900 44.237-2.196C47.261-0.492 50.693 0.360 54.533 0.360C56.789 0.360 59.141-0.084 61.589-0.972C64.037-1.860 66.053-2.976 67.637-4.320C68.165-4.800 68.429-5.352 68.429-5.976C68.429-6.696 68.117-7.344 67.493-7.920C66.965-8.304 66.437-8.496 65.909-8.496C65.237-8.496 64.589-8.256 63.965-7.776C62.909-6.864 61.505-6.108 59.753-5.508C58.001-4.908 56.261-4.608 54.533-4.608C50.501-4.608 47.141-5.832 44.453-8.280C41.765-10.728 40.229-13.920 39.845-17.856L68.933-17.856C69.701-17.856 70.325-18.084 70.805-18.540C71.285-18.996 71.525-19.608 71.525-20.376C71.525-24.120 70.769-27.456 69.257-30.384C67.745-33.312 65.621-35.604 62.885-37.260ZM44.381-31.392C46.781-33.648 49.805-34.776 53.453-34.776C57.053-34.776 60.005-33.648 62.309-31.392C64.613-29.136 65.957-26.160 66.341-22.464L39.989-22.464C40.517-26.160 41.981-29.136 44.381-31.392Z"/>
    <path d="M97.330-4.752C96.850-5.280 96.226-5.544 95.458-5.544L93.514-5.544C91.258-5.544 89.410-6.324 87.970-7.884C86.530-9.444 85.810-11.448 85.810-13.896L85.810-33.120L93.946-33.120C94.714-33.120 95.326-33.348 95.782-33.804C96.238-34.260 96.466-34.824 96.466-35.496C96.466-36.216 96.238-36.804 95.782-37.260C95.326-37.716 94.714-37.944 93.946-37.944L85.810-37.944L85.810-49.104C85.810-49.920 85.546-50.592 85.018-51.120C84.490-51.648 83.818-51.912 83.002-51.912C82.186-51.912 81.526-51.648 81.022-51.120C80.518-50.592 80.266-49.920 80.266-49.104L80.266-37.944L75.586-37.944C74.818-37.944 74.206-37.716 73.750-37.260C73.294-36.804 73.066-36.216 73.066-35.496C73.066-34.824 73.294-34.260 73.750-33.804C74.206-33.348 74.818-33.120 75.586-33.120L80.266-33.120L80.266-13.896C80.266-11.256 80.830-8.892 81.958-6.804C83.086-4.716 84.658-3.060 86.674-1.836C88.690-0.612 90.970 0 93.514 0L95.026 0C95.890 0 96.610-0.264 97.186-0.792C97.762-1.320 98.050-1.968 98.050-2.736C98.050-3.552 97.810-4.224 97.330-4.752Z"/>
    <path d="M132.386-37.116C129.338-38.868 125.942-39.744 122.198-39.744C118.454-39.744 115.058-38.868 112.010-37.116C108.962-35.364 106.562-32.952 104.810-29.880C103.058-26.808 102.182-23.400 102.182-19.656C102.182-15.912 103.034-12.516 104.738-9.468C106.442-6.420 108.770-4.020 111.722-2.268C114.674-0.516 117.974 0.360 121.622 0.360C124.742 0.360 127.598-0.300 130.190-1.620C132.782-2.940 134.918-4.752 136.598-7.056L136.598-2.736C136.598-1.920 136.862-1.260 137.390-0.756C137.918-0.252 138.590 0 139.406 0C140.222 0 140.894-0.264 141.422-0.792C141.950-1.320 142.214-1.968 142.214-2.736L142.214-19.656C142.214-23.400 141.338-26.808 139.586-29.880C137.834-32.952 135.434-35.364 132.386-37.116ZM129.614-6.624C127.406-5.328 124.934-4.680 122.198-4.680C119.462-4.680 116.978-5.328 114.746-6.624C112.514-7.920 110.762-9.708 109.490-11.988C108.218-14.268 107.582-16.824 107.582-19.656C107.582-22.488 108.218-25.044 109.490-27.324C110.762-29.604 112.514-31.404 114.746-32.724C116.978-34.044 119.462-34.704 122.198-34.704C124.934-34.704 127.406-34.044 129.614-32.724C131.822-31.404 133.562-29.604 134.834-27.324C136.106-25.044 136.742-22.488 136.742-19.656C136.742-16.824 136.106-14.268 134.834-11.988C133.562-9.708 131.822-7.920 129.614-6.624Z"/>
    <path d="M152.179-0.792C152.707-0.264 153.379 0 154.195 0C155.011 0 155.671-0.264 156.175-0.792C156.679-1.320 156.931-1.992 156.931-2.808L156.931-36.576C156.931-37.392 156.679-38.064 156.175-38.592C155.671-39.120 155.011-39.384 154.195-39.384C153.379-39.384 152.707-39.120 152.179-38.592C151.651-38.064 151.387-37.392 151.387-36.576L151.387-2.808C151.387-1.992 151.651-1.320 152.179-0.792ZM151.351-48.024C152.095-47.256 153.019-46.872 154.123-46.872C155.227-46.872 156.163-47.256 156.931-48.024C157.699-48.792 158.083-49.728 158.083-50.832C158.083-51.984 157.699-52.920 156.931-53.640C156.163-54.360 155.251-54.720 154.195-54.720C153.091-54.720 152.155-54.360 151.387-53.640C150.619-52.920 150.235-51.984 150.235-50.832C150.235-49.728 150.607-48.792 151.351-48.024Z"/>
    <path d="M169.596-3.492C171.444-1.164 173.832 0 176.760 0L177.696 0C178.656 0 179.436-0.252 180.036-0.756C180.636-1.260 180.936-1.920 180.936-2.736C180.936-3.552 180.720-4.212 180.288-4.716C179.856-5.220 179.280-5.472 178.560-5.472L176.760-5.472C175.464-5.472 174.396-6.120 173.556-7.416C172.716-8.712 172.296-10.392 172.296-12.456L172.296-53.496C172.296-54.312 172.044-54.972 171.540-55.476C171.036-55.980 170.376-56.232 169.560-56.232C168.792-56.232 168.144-55.980 167.616-55.476C167.088-54.972 166.824-54.312 166.824-53.496L166.824-12.456C166.824-8.808 167.748-5.820 169.596-3.492Z"/>
    <path d="M208.361-39.024C207.185-39.552 205.589-39.816 203.573-39.816C201.077-39.816 198.749-39.264 196.589-38.160C194.429-37.056 192.653-35.496 191.261-33.480L191.261-36.648C191.261-37.512 191.021-38.184 190.541-38.664C190.061-39.144 189.389-39.384 188.525-39.384C187.661-39.384 186.989-39.144 186.509-38.664C186.029-38.184 185.789-37.512 185.789-36.648L185.789-2.736C185.789-1.872 186.029-1.200 186.509-0.720C186.989-0.240 187.661 0 188.525 0C189.389 0 190.061-0.240 190.541-0.720C191.021-1.200 191.261-1.872 191.261-2.736L191.261-24.264C191.261-27.336 192.401-29.832 194.681-31.752C196.961-33.672 199.901-34.632 203.501-34.632C204.269-34.632 204.845-34.608 205.229-34.560C206.285-34.464 207.029-34.416 207.461-34.416C208.181-34.416 208.745-34.536 209.153-34.776C209.561-35.016 209.861-35.472 210.053-36.144C210.101-36.288 210.125-36.504 210.125-36.792C210.125-37.752 209.537-38.496 208.361-39.024Z"/>      
  </g>
</svg>